<?xml version='1.0' encoding='utf-8'?>
<svg xmlns="http://www.w3.org/2000/svg" version="1.1" viewBox="0 0 221 261"><path d="M0 0 C29.96433536 0.43143512 52.60269013 15.31343314 73.28295898 35.67285156 C75.51882301 38.12182702 77.08306735 40.44509283 78.70092773 43.32128906 C79.69092773 44.49691406 79.69092773 44.49691406 80.70092773 45.69628906 C83.00650865 48.72236401 84.32769349 51.81574637 85.70092773 55.32128906 C86.00901367 56.01738281 86.31709961 56.71347656 86.63452148 57.43066406 C88.89868592 62.68141116 90.50151367 67.97452369 91.88842773 73.50878906 C92.05528076 74.17386475 92.22213379 74.83894043 92.39404297 75.52416992 C95.95237989 90.24964751 94.92522435 103.74509099 91.70092773 118.32128906 C91.47276367 119.43117188 91.24459961 120.54105469 91.00952148 121.68457031 C89.53234241 128.32765563 87.22713327 133.53958269 83.70092773 139.32128906 C82.97167003 140.75874288 82.24250531 142.19624388 81.51342773 143.63378906 C73.22739231 158.60126258 59.13106709 170.5224236 44.70092773 179.32128906 C44.00225586 179.75183594 43.30358398 180.18238281 42.58374023 180.62597656 C24.80531948 190.53021788 1.42708083 193.25326583 -18.29907227 189.32128906 C-19.41926758 189.11246094 -20.53946289 188.90363281 -21.69360352 188.68847656 C-48.43037574 183.16985454 -68.33647414 166.86657656 -83.42407227 144.82128906 C-87.5487823 138.53704497 -90.34934478 132.60027168 -92.29907227 125.32128906 C-93.0319043 123.49597656 -93.0319043 123.49597656 -93.77954102 121.63378906 C-95.38431465 117.39075782 -96.09366804 113.32064304 -96.54907227 108.82128906 C-96.63060547 108.04446777 -96.71213867 107.26764648 -96.79614258 106.46728516 C-97.51797366 98.64002872 -97.15578131 91.13148126 -96.29907227 83.32128906 C-96.19723633 82.28617187 -96.09540039 81.25105469 -95.99047852 80.18457031 C-94.09123209 65.51925513 -86.65928478 49.65901127 -77.29907227 38.32128906 C-76.47620753 37.16190949 -75.6623035 35.9960643 -74.86157227 34.82128906 C-71.0957535 29.53773122 -66.59623392 25.64536118 -61.38110352 21.85253906 C-60.06349723 20.88349279 -58.76575462 19.88630547 -57.49829102 18.85253906 C-48.35265417 11.48902845 -37.92017764 7.26441006 -26.79907227 3.88378906 C-25.95054688 3.6246875 -25.10202148 3.36558594 -24.2277832 3.09863281 C-19.76995383 1.8103042 -15.98031957 1.13611314 -11.29907227 1.32128906 C-9.0119607 -0.9658225 -3.17182459 0.01150022 0 0 Z M-8.29907227 15.32128906 C-10.15528319 15.63418111 -12.01251274 15.94203998 -13.87402344 16.22167969 C-22.05196029 17.46473303 -28.9521421 19.39014209 -36.29907227 23.32128906 C-37.24137695 23.76730469 -38.18368164 24.21332031 -39.15454102 24.67285156 C-42.80336836 26.58565298 -46.07986075 28.80140211 -49.42407227 31.19628906 C-50.0312207 31.6178125 -50.63836914 32.03933594 -51.26391602 32.47363281 C-54.91468325 35.0745062 -57.61265345 37.68064456 -60.29907227 41.32128906 C-62.61452474 43.69462785 -64.93774875 46.0024742 -67.42407227 48.19628906 C-69.37608226 50.40856706 -70.39762785 52.5098621 -71.45922852 55.24707031 C-72.29907227 57.32128906 -72.29907227 57.32128906 -73.42016602 59.55175781 C-82.55316502 77.90311096 -85.46047706 98.95063612 -80.48657227 118.96582031 C-78.18116602 125.48010967 -74.80650047 131.38836111 -71.29907227 137.32128906 C-70.8130957 138.18625 -70.32711914 139.05121094 -69.82641602 139.94238281 C-68.07122334 142.67617396 -66.06879256 144.93912888 -63.86157227 147.32128906 C-61.5603368 149.8133207 -59.33086952 152.28075961 -57.23657227 154.95019531 C-47.59289491 166.75203434 -30.62130992 172.82199064 -16.02563477 174.92675781 C-13.29907227 175.32128906 -13.29907227 175.32128906 -10.87719727 175.85644531 C9.03641048 179.44692913 30.33386696 172.47271963 46.67358398 161.28613281 C58.83820687 152.49805953 69.15010732 140.98280187 73.13061523 126.12597656 C73.70092773 124.32128906 73.70092773 124.32128906 75.70092773 121.32128906 C79.10343722 112.71494153 78.90890459 103.69031192 78.95092773 94.57128906 C78.97155273 93.46785156 78.99217773 92.36441406 79.01342773 91.22753906 C79.06462376 80.32278469 76.97371349 70.85674836 71.70092773 61.32128906 C71.11600104 60.07203387 70.53271724 58.82200835 69.95092773 57.57128906 C61.0770706 40.13074677 46.57141678 26.01856079 27.88842773 19.38378906 C26.50145663 18.99636697 25.1049492 18.64145844 23.70092773 18.32128906 C22.55817383 18.05445313 22.55817383 18.05445313 21.39233398 17.78222656 C18.83603028 17.23415505 16.27733573 16.76537078 13.70092773 16.32128906 C12.63100586 16.134375 11.56108398 15.94746094 10.45874023 15.75488281 C0.67990532 13.44210358 0.67990532 13.44210358 -8.29907227 15.32128906 Z " fill="#FFFFFF" /></svg>