<?xml version='1.0' encoding='utf-8'?>
<svg xmlns="http://www.w3.org/2000/svg" version="1.1" viewBox="0 0 221 261"><path d="M0 0 C-1.44632705 3.65512 -3.1184009 5.00592203 -6.5 6.9375 C-7.39460938 7.44925781 -8.28921875 7.96101563 -9.2109375 8.48828125 C-13.4218591 10.77067153 -17.69109589 12.90975347 -22 15 C-23.29268292 15.64379681 -24.58440171 16.28953433 -25.875 16.9375 C-29.20833333 18.60416667 -32.54166667 20.27083333 -35.875 21.9375 C-36.89464844 22.44796875 -37.91429688 22.9584375 -38.96484375 23.484375 C-40.91326865 24.45733364 -42.86363186 25.42642572 -44.81640625 26.390625 C-52.30571241 30.02508318 -52.30571241 30.02508318 -59.125 34.75 C-59.74375 35.1625 -60.3625 35.575 -61 36 C-61.99 35.67 -62.98 35.34 -64 35 C-59.42186487 1.01407922 -59.42186487 1.01407922 -56 -8 C-41.44955406 -17.7002973 -13.3725068 -8.91500453 0 0 Z " fill="#FFFFFF" /></svg>