<?xml version='1.0' encoding='utf-8'?>
<svg xmlns="http://www.w3.org/2000/svg" version="1.1" viewBox="0 0 221 261"><path d="M0 0 C6.96899702 4.69820024 10.87672294 12.94884974 15 20 C15.51046875 20.73992187 16.0209375 21.47984375 16.546875 22.2421875 C20.69665213 28.51567411 21.02113288 35.18111959 21.640625 42.5 C21.60942738 45.81982189 21.60942738 45.81982189 23 47 C23.07205511 48.68608966 23.08386068 50.37500659 23.0625 52.0625 C23.05347656 52.98160156 23.04445312 53.90070313 23.03515625 54.84765625 C23.02355469 55.55792969 23.01195312 56.26820313 23 57 C19.18874806 55.7669479 16.71767641 53.97124765 13.72265625 51.3515625 C11.12521391 49.3136599 8.25858601 47.86860975 5.35546875 46.3125 C1.41139806 44.11480887 -2.27490197 41.54569848 -6 39 C-7.53968148 37.95540128 -9.08133518 36.91370327 -10.625 35.875 C-11.29789063 35.41867188 -11.97078125 34.96234375 -12.6640625 34.4921875 C-18.5567881 30.72793804 -24.75397087 27.50337351 -30.9375 24.25 C-31.71673828 23.83878906 -32.49597656 23.42757812 -33.29882812 23.00390625 C-35.19865857 22.00154172 -37.09925003 21.00061978 -39 20 C-39 19.01 -39 18.02 -39 17 C-35.68881454 14.62008545 -31.94830419 12.96232274 -28.296875 11.1640625 C-25.70742658 9.851723 -23.16772922 8.46315593 -20.625 7.0625 C-18.75 6.04166667 -16.875 5.02083333 -15 4 C-14.0925 3.4946875 -13.185 2.989375 -12.25 2.46875 C-11.38375 2.0046875 -10.5175 1.540625 -9.625 1.0625 C-8.46871094 0.43021484 -8.46871094 0.43021484 -7.2890625 -0.21484375 C-4.4032411 -1.20469034 -2.87853516 -0.95331132 0 0 Z " fill="#FFFFFF" /></svg>