<?xml version='1.0' encoding='utf-8'?>
<svg xmlns="http://www.w3.org/2000/svg" version="1.1" viewBox="0 0 221 261"><path d="M0 0 C8.45703054 3.25618288 16.00775221 7.83394236 23.375 13.0625 C23.95757568 13.47371094 24.54015137 13.88492188 25.14038086 14.30859375 C28.76078154 16.92758483 31.90657202 19.75471283 35 23 C35.33 23.33 35.66 23.66 36 24 C36.74015012 31.7715763 34.77788592 36.30807403 31 43 C30.566875 43.99 30.13375 44.98 29.6875 46 C23.48396387 57.02850868 13.15489794 67.92628399 2 74 C-0.69111638 74.56401751 -3.24666982 74.79386833 -6 75 C-5.91959473 74.34854004 -5.83918945 73.69708008 -5.75634766 73.02587891 C-3.09588767 51.26779461 -0.6152469 29.53713066 -0.9855957 7.58691406 C-1.02097134 5.39155579 -1.0150236 3.19559187 -1 1 C-0.67 0.67 -0.34 0.34 0 0 Z " fill="#FFFFFF" /></svg>