<?xml version='1.0' encoding='utf-8'?>
<svg xmlns="http://www.w3.org/2000/svg" version="1.1" viewBox="0 0 221 261"><path d="M0 0 C0.9813923 -0.00701996 0.9813923 -0.00701996 1.9826107 -0.01418173 C4.16130598 -0.02608835 6.33936716 -0.01669209 8.51806641 -0.00723267 C10.08555466 -0.01130031 11.65304005 -0.01664328 13.22052002 -0.02316284 C17.46843774 -0.03681931 21.71613646 -0.03154472 25.96405792 -0.02202559 C30.41354454 -0.01442034 34.86301264 -0.021477 39.3125 -0.02618408 C46.78405111 -0.03163911 54.2555132 -0.02445665 61.72705078 -0.01016235 C70.36015901 0.00616369 78.99305468 0.000875 87.62615776 -0.01564157 C95.04373937 -0.02926364 102.46125705 -0.03117257 109.87884712 -0.02332556 C114.30669768 -0.01865301 118.73444838 -0.0180127 123.16229248 -0.02793503 C127.32546672 -0.03661291 131.4883674 -0.03056787 135.65151215 -0.01325226 C137.1776967 -0.00929179 138.70390435 -0.01041394 140.23007965 -0.01704025 C142.31678122 -0.02526366 144.40261145 -0.01492591 146.48925781 0 C148.23911484 0.00169662 148.23911484 0.00169662 150.02432251 0.00342751 C156.71806531 0.78814932 161.04409138 4.42807832 165.24462891 9.38095093 C166.2855355 11.02238056 167.28967217 12.68807308 168.24462891 14.38095093 C169.23462891 15.61845093 169.23462891 15.61845093 170.24462891 16.88095093 C172.24462891 19.38095093 172.24462891 19.38095093 173.80712891 22.00595093 C175.08986798 24.35704224 175.08986798 24.35704224 176.74462891 25.81845093 C178.8789825 28.04173592 179.916111 30.61320529 181.24462891 33.38095093 C181.76283203 34.13634155 182.28103516 34.89173218 182.81494141 35.67001343 C184.54550211 38.95145914 184.6455116 41.18835389 184.61962891 44.88095093 C184.62736328 45.98438843 184.63509766 47.08782593 184.64306641 48.22470093 C184.19731205 51.75577462 183.55889925 53.6725472 181.24462891 56.38095093 C178.8371582 56.7359314 178.8371582 56.7359314 176.24462891 56.38095093 C174.51879883 54.88729858 174.51879883 54.88729858 172.97509766 52.79501343 C172.40017578 52.03341919 171.82525391 51.27182495 171.23291016 50.4871521 C170.63865234 49.66835571 170.04439453 48.84955933 169.43212891 48.00595093 C168.18627478 46.34821873 166.94018261 44.69066541 165.69384766 43.03329468 C165.09878418 42.23004761 164.5037207 41.42680054 163.890625 40.59921265 C156.24234367 29.47335983 156.24234367 29.47335983 145.24462891 22.38095093 C143.33476002 22.27746023 141.42149449 22.23294141 139.50886536 22.22032166 C138.31307861 22.21027603 137.11729187 22.20023041 135.88526917 22.18988037 C134.57146774 22.18404938 133.25766632 22.17821838 131.90405273 22.17221069 C130.50773891 22.16267075 129.11142745 22.15277953 127.71511841 22.14256287 C123.12732748 22.11119098 118.5395185 22.09091113 113.95166016 22.07235718 C112.78008822 22.0674112 112.78008822 22.0674112 111.58484817 22.06236529 C104.21594136 22.03158282 96.84703041 22.00488078 89.47807789 21.98794651 C80.06016483 21.96604827 70.64282246 21.92409306 61.22513753 21.85450894 C54.59910775 21.8072183 47.97323167 21.78300618 41.34703845 21.77574962 C37.39167998 21.77080056 33.43696491 21.75579234 29.48179054 21.71600533 C25.75757966 21.67903544 22.03437684 21.67076218 18.31001663 21.68401146 C16.30045308 21.68393214 14.29095857 21.65414793 12.28163147 21.62332153 C5.46574582 21.67792782 1.03387294 22.15499386 -4.17058277 26.75306606 C-4.69356292 27.29026807 -5.21654306 27.82747007 -5.75537109 28.38095093 C-6.34335574 28.98309197 -6.93134039 29.58523302 -7.53714275 30.20562077 C-9.17672116 31.94368081 -10.72021356 33.73769669 -12.25537109 35.56845093 C-12.81216553 36.22047485 -13.36895996 36.87249878 -13.94262695 37.54428101 C-17.90553521 42.23461305 -21.584574 47.05536317 -25.07177734 52.11141968 C-26.80790823 54.45177246 -28.56940175 56.45320199 -30.75537109 58.38095093 C-33.77348532 58.2034148 -34.59272324 57.54359878 -36.75537109 55.38095093 C-38.47847017 45.65111602 -38.14318413 37.38130608 -32.65820312 28.96078491 C-30.36639359 25.76445107 -27.99386804 22.65172794 -25.52587891 19.58944702 C-23.84347224 17.49084654 -22.24035134 15.35330612 -20.65380859 13.18173218 C-19.71077375 11.91310881 -18.76558812 10.64608033 -17.81787109 9.38095093 C-17.39465576 8.811427 -16.97144043 8.24190308 -16.53540039 7.65512085 C-11.95894751 1.82214041 -7.29983977 0.00707773 0 0 Z " fill="#FFFFFF" /></svg>