<?xml version='1.0' encoding='utf-8'?>
<svg xmlns="http://www.w3.org/2000/svg" version="1.1" viewBox="0 0 221 261"><path d="M0 0 C-0.56067335 6.13789768 -1.24928439 12.25785162 -2 18.375 C-2.0829834 19.06464844 -2.1659668 19.75429687 -2.25146484 20.46484375 C-2.88655445 25.56552413 -2.88655445 25.56552413 -3.49780273 27.90649414 C-4.52883536 32.20455187 -4.68532259 36.66768465 -5.0625 41.0625 C-5.15337891 42.04927734 -5.24425781 43.03605469 -5.33789062 44.05273438 C-5.84967056 49.92858368 -6.07213934 55.70677934 -5.93530273 61.60449219 C-6.02742949 65.01561568 -6.8611505 67.79698579 -8 71 C-12.70466625 68.01199823 -16.87259846 64.66786614 -21.0625 61 C-22.26104718 59.95756069 -23.4602539 58.91587915 -24.66015625 57.875 C-25.22831055 57.38193359 -25.79646484 56.88886719 -26.38183594 56.38085938 C-28.54576084 54.5342753 -30.77730096 52.77504512 -33 51 C-34.70680947 49.37446717 -36.37660195 47.70884005 -38 46 C-38.639375 45.38125 -39.27875 44.7625 -39.9375 44.125 C-41 42 -41 42 -40.6875 39 C-38.290965 32.0227462 -33.30511451 25.07382886 -28 20 C-26.99822419 18.77228019 -25.99836998 17.54299099 -25 16.3125 C-19.5233936 10.01208204 -8.82249604 0 0 0 Z " fill="#FFFFFF" /></svg>