<?xml version='1.0' encoding='utf-8'?>
<svg xmlns="http://www.w3.org/2000/svg" version="1.1" viewBox="0 0 221 261"><path d="M0 0 C2.5703125 0.35546875 2.5703125 0.35546875 4.265625 1.9296875 C4.73742188 2.62707031 5.20921875 3.32445312 5.6953125 4.04296875 C6.41074219 5.06970703 6.41074219 5.06970703 7.140625 6.1171875 C8.12194943 7.65352328 9.07918896 9.20542997 10.015625 10.76953125 C13.01190323 15.75329051 16.3220377 20.53390432 19.5703125 25.35546875 C20.19808594 26.31195313 20.82585938 27.2684375 21.47265625 28.25390625 C22.06175781 29.13304687 22.65085937 30.0121875 23.2578125 30.91796875 C24.03705078 32.09552734 24.03705078 32.09552734 24.83203125 33.296875 C27.57602886 36.54650813 30.23398225 38.1808107 34.48016262 38.73578548 C36.09866415 38.73943033 36.09866415 38.73943033 37.74986267 38.7431488 C38.99335983 38.75305344 40.23685699 38.76295807 41.51803589 38.77316284 C42.88824562 38.7689251 44.25845439 38.76436727 45.62866211 38.75952148 C47.0777794 38.76522638 48.5268922 38.77219111 49.97599792 38.78031921 C53.90579632 38.79825288 57.83537145 38.79708188 61.76519847 38.79137683 C65.04801876 38.78828521 68.33079615 38.79437714 71.61361033 38.80041558 C79.35922382 38.81445992 87.10472702 38.81290034 94.8503418 38.80151367 C102.83648888 38.79003271 110.82230013 38.8041078 118.80840296 38.83091015 C125.66971129 38.8530739 132.53091426 38.85970301 139.39225584 38.85383373 C143.488173 38.85046452 147.58387489 38.85287669 151.67976189 38.87008476 C155.53192004 38.88556269 159.3835811 38.88158942 163.23571968 38.86277962 C164.64741547 38.85909601 166.05914816 38.86219566 167.47080994 38.87266541 C177.39651749 39.17260543 177.39651749 39.17260543 185.5703125 34.35546875 C187.75470807 31.67925672 187.75470807 31.67925672 189.5703125 28.66796875 C190.58738281 27.07855469 190.58738281 27.07855469 191.625 25.45703125 C192.26695312 24.43351562 192.90890625 23.41 193.5703125 22.35546875 C196.86026174 17.23951898 200.19339629 12.45555827 204.265625 7.9296875 C205.7641412 6.22936267 205.7641412 6.22936267 207.1328125 3.41796875 C208.5703125 1.35546875 208.5703125 1.35546875 211.1328125 0.85546875 C213.5703125 1.35546875 213.5703125 1.35546875 215.5703125 4.35546875 C216.0351572 8.29844552 215.94065041 12.26303176 215.9453125 16.23046875 C215.96980469 17.31972656 215.99429688 18.40898437 216.01953125 19.53125 C216.04917252 27.60355663 216.04917252 27.60355663 213.734375 31.23828125 C213.02023438 31.93695313 212.30609375 32.635625 211.5703125 33.35546875 C210.86068359 34.78632813 210.86068359 34.78632813 210.13671875 36.24609375 C208.29714264 39.89772114 206.03273163 42.9079729 203.5078125 46.10546875 C202.83782227 46.96978516 202.83782227 46.96978516 202.15429688 47.8515625 C200.37810244 50.12955177 198.61470521 52.31107604 196.5703125 54.35546875 C194.15564713 54.56799331 191.85345295 54.65545889 189.43624878 54.65653992 C188.32121717 54.66862833 188.32121717 54.66862833 187.18365967 54.68096095 C184.67954989 54.70543164 182.17559345 54.71541722 179.67138672 54.7253418 C177.88113315 54.73950419 176.09088541 54.7544197 174.30064392 54.77003479 C168.40881188 54.81734512 162.51696492 54.84297318 156.625 54.8671875 C154.5975859 54.87659353 152.57017221 54.88608794 150.54275894 54.89566994 C142.10847092 54.93417815 133.674193 54.96738936 125.23983574 54.98604107 C113.14958316 55.01284053 101.06040172 55.07035646 88.97053707 55.17180604 C80.47192425 55.24068182 71.97359605 55.27500756 63.47471058 55.28360587 C58.39796521 55.28960939 53.32232076 55.31057857 48.24587631 55.36816978 C43.46674717 55.42156538 38.68940944 55.43206735 33.91005135 55.41002464 C32.15888293 55.40930885 30.40762878 55.42392183 28.65674019 55.45523453 C15.444455 55.67844182 15.444455 55.67844182 10.77408218 52.38158607 C8.73651709 50.13239297 7.1226103 47.95636474 5.5703125 45.35546875 C4.92578125 44.41316406 4.28125 43.47085938 3.6171875 42.5 C2.97523437 41.34564453 2.97523437 41.34564453 2.3203125 40.16796875 C0.80631823 37.48285538 -0.53120432 35.24010873 -2.578125 32.9140625 C-5.940321 27.92409879 -4.91930005 21.35419309 -4.8046875 15.60546875 C-4.80339844 14.36152344 -4.80210937 13.11757812 -4.80078125 11.8359375 C-4.69159091 0.68639031 -4.69159091 0.68639031 0 0 Z " fill="#FFFFFF" /></svg>