<?xml version='1.0' encoding='utf-8'?>
<svg xmlns="http://www.w3.org/2000/svg" version="1.1" viewBox="0 0 221 261"><path d="M0 0 C-0.144375 1.0725 -0.28875 2.145 -0.4375 3.25 C-1.02834143 7.91015777 -1.37895456 12.58130216 -1.71875 17.265625 C-2 20 -2 20 -2.49511719 21.90917969 C-3.00781198 24.03235098 -3.21560336 26.01010334 -3.359375 28.1875 C-3.42382812 28.96867187 -3.48828125 29.74984375 -3.5546875 30.5546875 C-3.68480269 32.18372973 -3.79941729 33.81408488 -3.8984375 35.4453125 C-4.26431257 39.55124388 -4.46197638 41.42354612 -7.3515625 44.51953125 C-10.58936614 46.32945393 -13.32833056 46.66003061 -17 47 C-17.99 47.33 -18.98 47.66 -20 48 C-34.69482266 47.95502605 -50.23211476 46.36627601 -62 37 C-63.0725 36.46375 -64.145 35.9275 -65.25 35.375 C-67.74323544 34.12838228 -69.29538358 33.17812098 -71 31 C-71 30.34 -71 29.68 -71 29 C-69.86046875 28.5875 -68.7209375 28.175 -67.546875 27.75 C-56.31115902 23.65916379 -45.18265343 19.34384021 -34.10205078 14.8503418 C-32.5792655 14.23433005 -31.05089336 13.63207056 -29.51928711 13.03833008 C-27.09301582 12.03833669 -24.8122997 10.91893236 -22.49609375 9.6875 C-21.67302734 9.25179687 -20.84996094 8.81609375 -20.00195312 8.3671875 C-18.73254883 7.69042969 -18.73254883 7.69042969 -17.4375 7 C-15.74887284 6.10383699 -14.06007676 5.20799217 -12.37109375 4.3125 C-11.62786865 3.91675781 -10.88464355 3.52101562 -10.11889648 3.11328125 C-9.07004272 2.56220703 -9.07004272 2.56220703 -8 2 C-7.33234619 1.62230469 -6.66469238 1.24460938 -5.97680664 0.85546875 C-4 0 -4 0 0 0 Z " fill="#FFFFFF" /></svg>