<?xml version='1.0' encoding='utf-8'?>
<svg xmlns="http://www.w3.org/2000/svg" version="1.1" viewBox="0 0 221 261"><path d="M0 0 C4.30308722 0.49770647 6.95127089 3.24650001 10.0625 6 C11.22591186 7.00726241 12.38998478 8.01376175 13.5546875 9.01953125 C14.42432129 9.77484131 14.42432129 9.77484131 15.31152344 10.54541016 C19.46387698 14.12258228 23.74247779 17.54950066 28 21 C28.84304687 21.68964844 29.68609375 22.37929687 30.5546875 23.08984375 C39.59767319 30.4284661 49.13173814 36.8276461 59 43 C58.9765625 44.80859375 58.9765625 44.80859375 58 47 C55.4310922 48.2245726 53.05793968 49.17536041 50.375 50.0625 C48.96558476 50.55177214 47.55672501 51.04264754 46.1484375 51.53515625 C45.09813354 51.89637573 45.09813354 51.89637573 44.02661133 52.26489258 C42.16690637 52.93945849 40.34760728 53.72280538 38.53515625 54.515625 C34.4448745 56.23309137 30.3247407 57.47858683 26.0625 58.6875 C25.28326172 58.91244141 24.50402344 59.13738281 23.70117188 59.36914062 C21.80193386 59.91677367 19.90112655 60.45895949 18 61 C4.15328195 44.48234141 -1.70925687 28.74145111 -1 7 C-0.77488955 4.62081541 -0.43739828 2.35101577 0 0 Z " fill="#FFFFFF" /></svg>